# xmcd CD database file
#
# Track frame offsets:
#	150
#	20363
#	42375
#
# Disc length: 833 seconds
#
# Revision: 1
# Processed by: cddbd v1.5PL3 Copyright (c) Steve Scherf et al.
# Submitted via: CDex 1.51
#
DISCID=1c033f03
DTITLE=The gardens - Love and Pain
DYEAR=1997
DGENRE=JPop
TTITLE0=Love and Pain
TTITLE1=Freedom
TTITLE2=Love and Pain  Instrumental Version
EXTD=YEAR: 1997
EXTT0=
EXTT1=
EXTT2=
PLAYORDER=
